<?xml version="1.0" encoding="iso-8859-1"?>
<!-- Generator: Adobe Illustrator 16.0.0, SVG Export Plug-In . SVG Version: 6.00 Build 0)  -->
<!DOCTYPE svg PUBLIC "-//W3C//DTD SVG 1.1//EN" "http://www.w3.org/Graphics/SVG/1.1/DTD/svg11.dtd">
<svg version="1.1" id="Capa_1" xmlns="http://www.w3.org/2000/svg" xmlns:xlink="http://www.w3.org/1999/xlink" x="0px" y="0px"
	 width="65.001px" height="65.001px" viewBox="0 0 65.001 65.001" style="enable-background:new 0 0 65.001 65.001;"
	 xml:space="preserve">
<g>
	<g>
		<g>
			<path d="M65,57.568c0,3.828-3.104,6.933-6.932,6.933H6.932C3.104,64.5,0,61.396,0,57.568V20.432C0,16.604,3.104,13.5,6.932,13.5
				h51.136c3.828,0,6.933,3.104,6.933,6.932L65,57.568L65,57.568z M61,20.432c0-1.619-1.312-2.932-2.932-2.932H6.932
				C5.313,17.5,4,18.813,4,20.432v37.136C4,59.188,5.313,60.5,6.932,60.5h51.136c1.619,0,2.933-1.312,2.933-2.932L61,20.432
				L61,20.432z"/>
		</g>
		<g>
			<path d="M41,17.5c-1.104,0-2-0.896-2-2V6.714c0-1.83-2.374-2.214-3.637-2.214h-7.136C27.91,4.5,26,4.563,26,6.715V15.5
				c0,1.104-0.896,2-2,2s-2-0.896-2-2V6.714C22,3.113,24.115,0.5,28.228,0.5h7.137c3.982,0,7.636,2.556,7.636,6.215V15.5
				C43,16.604,42.104,17.5,41,17.5z"/>
		</g>
		<g>
			<path d="M26.131,39.5h-13c-0.553,0-1-0.447-1-1s0.447-1,1-1h13c0.553,0,1,0.447,1,1S26.684,39.5,26.131,39.5z"/>
		</g>
		<g>
			<path d="M7.13,39.5h-5c-0.553,0-1-0.447-1-1s0.447-1,1-1h5c0.553,0,1,0.447,1,1S7.683,39.5,7.13,39.5z"/>
		</g>
		<g>
			<path d="M63.131,39.5h-25c-0.553,0-1-0.447-1-1s0.447-1,1-1h25c0.553,0,1,0.447,1,1S63.684,39.5,63.131,39.5z"/>
		</g>
		<g>
			<path d="M39,41.43c0,2.248-1.822,4.07-4.07,4.07h-4.86c-2.248,0-4.07-1.822-4.07-4.07V36.57c0-2.247,1.822-4.069,4.07-4.069h4.86
				c2.247,0,4.069,1.822,4.069,4.069L39,41.43L39,41.43z M37,36.57c0-1.145-0.927-2.069-2.07-2.069h-4.86
				c-1.144,0-2.07,0.926-2.07,2.069v4.859c0,1.144,0.927,2.07,2.07,2.07h4.86c1.144,0,2.069-0.928,2.069-2.07L37,36.57L37,36.57z"/>
		</g>
	</g>
</g>
<g>
</g>
<g>
</g>
<g>
</g>
<g>
</g>
<g>
</g>
<g>
</g>
<g>
</g>
<g>
</g>
<g>
</g>
<g>
</g>
<g>
</g>
<g>
</g>
<g>
</g>
<g>
</g>
<g>
</g>
</svg>
