<?xml version="1.0" encoding="iso-8859-1"?>
<!-- Generator: Adobe Illustrator 16.0.0, SVG Export Plug-In . SVG Version: 6.00 Build 0)  -->
<!DOCTYPE svg PUBLIC "-//W3C//DTD SVG 1.1//EN" "http://www.w3.org/Graphics/SVG/1.1/DTD/svg11.dtd">
<svg version="1.1" id="Capa_1" xmlns="http://www.w3.org/2000/svg" xmlns:xlink="http://www.w3.org/1999/xlink" x="0px" y="0px"
	 width="66.949px" height="66.949px" viewBox="0 0 66.949 66.949" style="enable-background:new 0 0 66.949 66.949;"
	 xml:space="preserve">
<g>
	<g>
		<g>
			<path d="M33.558,42.628c-9.49,0-16.428-17.231-16.428-26.2C17.129,7.369,24.499,0,33.558,0c9.059,0,16.428,7.369,16.428,16.428
				C49.985,25.396,43.048,42.628,33.558,42.628z M33.558,4c-6.853,0-12.428,5.575-12.428,12.428c0,7.764,6.388,22.2,12.428,22.2
				c6.039,0,12.428-14.437,12.428-22.2C45.985,9.575,40.411,4,33.558,4z"/>
		</g>
		<g>
			<g>
				<path d="M25.163,17.899c-0.553,0-1-0.447-1-1c0-5.499,4.474-9.973,9.973-9.973c0.552,0,1,0.448,1,1c0,0.553-0.448,1-1,1
					c-4.396,0-7.973,3.577-7.973,7.973C26.163,17.452,25.715,17.899,25.163,17.899z"/>
			</g>
			<g>
				<path d="M25.514,21.738c-0.27,0-0.52-0.1-0.71-0.29c-0.189-0.189-0.29-0.45-0.29-0.71c0-0.26,0.101-0.52,0.29-0.71
					c0.37-0.37,1.04-0.37,1.41,0c0.19,0.19,0.3,0.45,0.3,0.71c0,0.271-0.109,0.521-0.3,0.71
					C26.035,21.639,25.774,21.738,25.514,21.738z"/>
			</g>
		</g>
		<g>
			<path d="M33.475,66.949c-5.649,0-24.083-0.577-24.083-8c0-10.635,7.018-20.227,17.066-23.326l1.225-0.378l0.855,0.955
				c3.062,3.42,6.725,3.581,10.01-0.065l0.861-0.957l1.227,0.387c9.963,3.145,16.922,12.761,16.922,23.386
				C57.558,66.372,39.124,66.949,33.475,66.949z M26.502,39.834c-7.777,2.934-13.111,10.625-13.111,19.115c0,1.102,6.175,4,20.083,4
				c13.907,0,20.083-2.898,20.083-4c0-8.486-5.283-16.199-12.986-19.17c-2.141,2-4.543,3.049-7.014,3.049
				C31.03,42.828,28.614,41.799,26.502,39.834z"/>
		</g>
	</g>
</g>
<g>
</g>
<g>
</g>
<g>
</g>
<g>
</g>
<g>
</g>
<g>
</g>
<g>
</g>
<g>
</g>
<g>
</g>
<g>
</g>
<g>
</g>
<g>
</g>
<g>
</g>
<g>
</g>
<g>
</g>
</svg>
