<?xml version="1.0" ?><svg data-name="Layer 2" id="Layer_2" viewBox="0 0 1000 1000" xmlns="http://www.w3.org/2000/svg"><defs><style>.cls-1{fill:none;stroke:#020202;stroke-linecap:round;stroke-miterlimit:10;stroke-width:22px;}</style></defs><path class="cls-1" d="M475.67,723.6A379.37,379.37,0,0,1,347,693.18a16.94,16.94,0,0,0-16.87,1.87l-151,111.36a2.68,2.68,0,0,1-4.52-1.95V458.59c0-146.76,145.69-265.74,325.41-265.74s325.41,119,325.41,265.74c0,89.67-54.38,169-137.68,217.08"/><path class="cls-1" d="M647.76,695.42A382,382,0,0,1,515.64,724"/><line class="cls-1" x1="352.25" x2="647.75" y1="407.39" y2="407.39"/><line class="cls-1" x1="647.76" x2="563.6" y1="523.6" y2="523.6"/><line class="cls-1" x1="517.83" x2="352.24" y1="523.6" y2="523.6"/></svg>