<?xml version="1.0" encoding="iso-8859-1"?>
<!-- Generator: Adobe Illustrator 16.0.0, SVG Export Plug-In . SVG Version: 6.00 Build 0)  -->
<!DOCTYPE svg PUBLIC "-//W3C//DTD SVG 1.1//EN" "http://www.w3.org/Graphics/SVG/1.1/DTD/svg11.dtd">
<svg version="1.1" id="Capa_1" xmlns="http://www.w3.org/2000/svg" xmlns:xlink="http://www.w3.org/1999/xlink" x="0px" y="0px"
	 width="68.125px" height="68.125px" viewBox="0 0 68.125 68.125" style="enable-background:new 0 0 68.125 68.125;"
	 xml:space="preserve">
<g>
	<g>
		<g>
			<path d="M45.433,60.125c0,3.312-2.687,6-6,6h-11c-3.313,0-6-2.688-6-6v-10c0-3.314,2.687-6,6-6h11c3.313,0,6,2.686,6,6V60.125z
				 M41.433,50.125c0-1.105-0.896-2-2-2h-11c-1.104,0-2,0.895-2,2v10c0,1.104,0.896,2,2,2h11c1.104,0,2-0.896,2-2V50.125z"/>
		</g>
		<g>
			<path d="M35.281,68.125h-2.895c-1.966,0-2.954-2.166-2.954-3.664v-0.336c0-1.105,0.847-2,1.95-2c1.105,0,1.951,0.895,1.951,2h1
				c0-1.105,0.944-2,2.049-2s2.05,0.895,2.05,2v0.336C38.433,65.958,37.248,68.125,35.281,68.125z"/>
		</g>
		<g>
			<path d="M26.896,47.439c-7.514-5.558-12.75-18.965-12.75-27.523C14.146,8.935,23.082,0,34.062,0
				c10.98,0,19.916,8.935,19.916,19.916c0,8.244-5.046,21.43-12.287,27.167l-2.484-3.136c6.166-4.885,10.771-16.717,10.771-24.031
				C49.979,11.14,42.838,4,34.062,4c-8.776,0-15.916,7.14-15.916,15.916c0,7.435,4.861,19.671,11.129,24.307L26.896,47.439z"/>
		</g>
		<g>
			<path d="M25.513,56.18c-0.387,0-0.754-0.226-0.918-0.603c-0.221-0.507,0.012-1.095,0.519-1.313l16.668-7.25
				c0.508-0.224,1.096,0.012,1.315,0.518c0.221,0.506-0.013,1.096-0.519,1.316l-16.668,7.25C25.78,56.154,25.646,56.18,25.513,56.18
				z"/>
		</g>
		<g>
			<path d="M25.513,63.18c-0.387,0-0.754-0.226-0.918-0.603c-0.221-0.507,0.012-1.095,0.519-1.313l16.668-7.25
				c0.508-0.222,1.096,0.012,1.315,0.518c0.221,0.506-0.013,1.096-0.519,1.316l-16.668,7.25C25.78,63.154,25.646,63.18,25.513,63.18
				z"/>
		</g>
		<g>
			<g>
				<path d="M34.334,21.124c-0.26,0-0.521-0.11-0.71-0.29c-0.181-0.19-0.29-0.44-0.29-0.71c0-0.271,0.109-0.521,0.29-0.71
					c0.37-0.37,1.05-0.37,1.419,0c0.181,0.189,0.291,0.45,0.291,0.71s-0.11,0.52-0.291,0.71
					C34.854,21.014,34.604,21.124,34.334,21.124z"/>
			</g>
			<g>
				<path d="M34.433,30.124c-0.553,0-1-0.447-1-1v-5c0-0.553,0.447-1,1-1c0.553,0,1,0.447,1,1v5
					C35.433,29.677,34.985,30.124,34.433,30.124z"/>
			</g>
			<g>
				<path d="M30.228,30.174c-0.256,0-0.512-0.098-0.707-0.293l-2.726-2.726c-0.391-0.391-0.391-1.023,0-1.414
					c0.391-0.391,1.023-0.391,1.414,0l2.726,2.726c0.391,0.391,0.391,1.022,0,1.414C30.739,30.076,30.483,30.174,30.228,30.174z"/>
			</g>
			<g>
				<path d="M38.602,30.174c-0.256,0-0.512-0.098-0.707-0.293c-0.391-0.391-0.391-1.023,0-1.414l2.727-2.726
					c0.391-0.391,1.022-0.391,1.414,0c0.391,0.391,0.391,1.023,0,1.414l-2.727,2.726C39.113,30.076,38.857,30.174,38.602,30.174z"/>
			</g>
		</g>
	</g>
</g>
<g>
</g>
<g>
</g>
<g>
</g>
<g>
</g>
<g>
</g>
<g>
</g>
<g>
</g>
<g>
</g>
<g>
</g>
<g>
</g>
<g>
</g>
<g>
</g>
<g>
</g>
<g>
</g>
<g>
</g>
</svg>
